<?xml version="1.0" encoding="UTF-8"?>
<svg width="1100" height="720" viewBox="0 0 1100 720" xmlns="http://www.w3.org/2000/svg" font-family="'Segoe UI', Arial, sans-serif">

  <!-- Background -->
  <rect width="1100" height="720" fill="#0A0E1A"/>

  <!-- Title -->
  <text x="550" y="42" text-anchor="middle" font-size="20" font-weight="700" fill="#FFFFFF" letter-spacing="2">RETAILCO FINANCIAL DATA PLATFORM</text>
  <text x="550" y="64" text-anchor="middle" font-size="12" fill="#8892A4" letter-spacing="1">GCP Dataflow   |   3 Builds   |   Streaming + Batch + Custom Beam</text>
  <line x1="80" y1="76" x2="1020" y2="76" stroke="#1A73E8" stroke-width="1" opacity="0.5"/>

  <!-- ═══════════════════════════════════════════════ -->
  <!-- BUILD 1: STREAMING LANE -->
  <!-- ═══════════════════════════════════════════════ -->
  <rect x="20" y="95" width="1060" height="165" rx="8" fill="#0D1929" stroke="#1A73E8" stroke-width="1" opacity="0.8"/>
  <rect x="20" y="95" width="120" height="165" rx="8" fill="#1A73E8" opacity="0.15"/>
  <text x="80" y="163" text-anchor="middle" font-size="11" font-weight="700" fill="#1A73E8" letter-spacing="1">BUILD 1</text>
  <text x="80" y="180" text-anchor="middle" font-size="10" fill="#8892A4">STREAMING</text>
  <text x="80" y="196" text-anchor="middle" font-size="9" fill="#8892A4">Pub/Sub to BQ</text>
  <text x="80" y="212" text-anchor="middle" font-size="9" fill="#8892A4">Managed Template</text>

  <!-- Publisher Script -->
  <rect x="155" y="120" width="130" height="115" rx="6" fill="#132036" stroke="#1A73E8" stroke-width="1.5"/>
  <rect x="155" y="120" width="130" height="28" rx="6" fill="#1A73E8" opacity="0.3"/>
  <text x="220" y="139" text-anchor="middle" font-size="10" font-weight="700" fill="#90CAF9">Python Publisher</text>
  <text x="220" y="160" text-anchor="middle" font-size="9" fill="#8892A4">publish_transactions.py</text>
  <text x="220" y="176" text-anchor="middle" font-size="9" fill="#64B5F6">1 event / second</text>
  <text x="220" y="192" text-anchor="middle" font-size="9" fill="#64B5F6">Synthetic transactions</text>
  <text x="220" y="208" text-anchor="middle" font-size="9" fill="#64B5F6">10 merchants, 4 cards</text>
  <text x="220" y="224" text-anchor="middle" font-size="9" fill="#FFB74D">3,111 events total</text>

  <!-- Arrow 1 -->
  <line x1="285" y1="177" x2="320" y2="177" stroke="#1A73E8" stroke-width="2"/>
  <polygon points="320,172 330,177 320,182" fill="#1A73E8"/>

  <!-- Pub/Sub -->
  <rect x="330" y="120" width="130" height="115" rx="6" fill="#132036" stroke="#1A73E8" stroke-width="1.5"/>
  <rect x="330" y="120" width="130" height="28" rx="6" fill="#1A73E8" opacity="0.3"/>
  <text x="395" y="139" text-anchor="middle" font-size="10" font-weight="700" fill="#90CAF9">Cloud Pub/Sub</text>
  <text x="395" y="160" text-anchor="middle" font-size="9" fill="#8892A4">Topic: transactions-stream</text>
  <text x="395" y="176" text-anchor="middle" font-size="9" fill="#64B5F6">Sub: transactions-stream-sub</text>
  <text x="395" y="192" text-anchor="middle" font-size="9" fill="#64B5F6">ack-deadline: 60s</text>
  <text x="395" y="208" text-anchor="middle" font-size="9" fill="#64B5F6">retention: 1 day</text>
  <text x="395" y="224" text-anchor="middle" font-size="9" fill="#FFB74D">Message broker</text>

  <!-- Arrow 2 -->
  <line x1="460" y1="177" x2="495" y2="177" stroke="#1A73E8" stroke-width="2"/>
  <polygon points="495,172 505,177 495,182" fill="#1A73E8"/>

  <!-- Dataflow Streaming -->
  <rect x="505" y="120" width="145" height="115" rx="6" fill="#132036" stroke="#1A73E8" stroke-width="2"/>
  <rect x="505" y="120" width="145" height="28" rx="6" fill="#1A73E8" opacity="0.5"/>
  <text x="577" y="139" text-anchor="middle" font-size="10" font-weight="700" fill="#FFFFFF">Dataflow</text>
  <text x="577" y="155" text-anchor="middle" font-size="9" fill="#90CAF9">PubSub_to_BigQuery</text>
  <text x="577" y="171" text-anchor="middle" font-size="9" fill="#64B5F6">Template: Managed</text>
  <text x="577" y="187" text-anchor="middle" font-size="9" fill="#64B5F6">Worker: e2-medium</text>
  <text x="577" y="203" text-anchor="middle" font-size="9" fill="#64B5F6">max-workers: 1</text>
  <text x="577" y="219" text-anchor="middle" font-size="9" fill="#FFB74D">Dead-letter: DLQ table</text>

  <!-- Arrow 3 -->
  <line x1="650" y1="177" x2="685" y2="177" stroke="#1A73E8" stroke-width="2"/>
  <polygon points="685,172 695,177 685,182" fill="#1A73E8"/>

  <!-- BigQuery transactions_raw -->
  <rect x="695" y="120" width="145" height="115" rx="6" fill="#132036" stroke="#1A73E8" stroke-width="1.5"/>
  <rect x="695" y="120" width="145" height="28" rx="6" fill="#1A73E8" opacity="0.3"/>
  <text x="767" y="139" text-anchor="middle" font-size="10" font-weight="700" fill="#90CAF9">BigQuery</text>
  <text x="767" y="155" text-anchor="middle" font-size="9" fill="#8892A4">transactions.transactions_raw</text>
  <text x="767" y="171" text-anchor="middle" font-size="9" fill="#64B5F6">10 columns, TIMESTAMP key</text>
  <text x="767" y="187" text-anchor="middle" font-size="9" fill="#64B5F6">is_flagged: BOOLEAN</text>
  <text x="767" y="203" text-anchor="middle" font-size="9" fill="#64B5F6">Schema: JSON in GCS</text>
  <text x="767" y="219" text-anchor="middle" font-size="9" fill="#FFB74D">3,111 rows | $7.1M vol.</text>

  <!-- Schema GCS note -->
  <rect x="855" y="120" width="115" height="115" rx="6" fill="#0D1929" stroke="#455A64" stroke-width="1" stroke-dasharray="4,3"/>
  <text x="912" y="150" text-anchor="middle" font-size="9" fill="#607D8B">GCS Schema</text>
  <text x="912" y="166" text-anchor="middle" font-size="9" fill="#607D8B">transactions_schema</text>
  <text x="912" y="182" text-anchor="middle" font-size="9" fill="#607D8B">.json</text>
  <text x="912" y="202" text-anchor="middle" font-size="9" fill="#455A64">[PROJECT-BUCKET]</text>
  <text x="912" y="218" text-anchor="middle" font-size="9" fill="#455A64">/schemas/</text>
  <line x1="855" y1="177" x2="840" y2="177" stroke="#455A64" stroke-width="1" stroke-dasharray="3,2"/>
  <line x1="840" y1="177" x2="840" y2="148" stroke="#455A64" stroke-width="1" stroke-dasharray="3,2"/>
  <line x1="840" y1="148" x2="695" y2="148" stroke="#455A64" stroke-width="1" stroke-dasharray="3,2"/>

  <!-- ═══════════════════════════════════════════════ -->
  <!-- BUILD 2: BATCH LANE -->
  <!-- ═══════════════════════════════════════════════ -->
  <rect x="20" y="278" width="1060" height="165" rx="8" fill="#0D1929" stroke="#137333" stroke-width="1" opacity="0.8"/>
  <rect x="20" y="278" width="120" height="165" rx="8" fill="#137333" opacity="0.15"/>
  <text x="80" y="346" text-anchor="middle" font-size="11" font-weight="700" fill="#34A853" letter-spacing="1">BUILD 2</text>
  <text x="80" y="363" text-anchor="middle" font-size="10" fill="#8892A4">BATCH</text>
  <text x="80" y="379" text-anchor="middle" font-size="9" fill="#8892A4">GCS Text to BQ</text>
  <text x="80" y="395" text-anchor="middle" font-size="9" fill="#8892A4">Managed Template</text>

  <!-- Cloud Scheduler -->
  <rect x="155" y="303" width="130" height="115" rx="6" fill="#0D2015" stroke="#34A853" stroke-width="1.5"/>
  <rect x="155" y="303" width="130" height="28" rx="6" fill="#34A853" opacity="0.3"/>
  <text x="220" y="322" text-anchor="middle" font-size="10" font-weight="700" fill="#81C995">Cloud Scheduler</text>
  <text x="220" y="343" text-anchor="middle" font-size="9" fill="#8892A4">settlements-nightly-batch</text>
  <text x="220" y="359" text-anchor="middle" font-size="9" fill="#81C995">Cron: 0 2 * * *</text>
  <text x="220" y="375" text-anchor="middle" font-size="9" fill="#81C995">TZ: America/New_York</text>
  <text x="220" y="391" text-anchor="middle" font-size="9" fill="#81C995">Target: Dataflow REST API</text>
  <text x="220" y="407" text-anchor="middle" font-size="9" fill="#FFB74D">Triggers at 2:00 AM ET</text>

  <!-- Arrow -->
  <line x1="285" y1="360" x2="320" y2="360" stroke="#34A853" stroke-width="2"/>
  <polygon points="320,355 330,360 320,365" fill="#34A853"/>

  <!-- GCS CSV -->
  <rect x="330" y="303" width="130" height="115" rx="6" fill="#0D2015" stroke="#34A853" stroke-width="1.5"/>
  <rect x="330" y="303" width="130" height="28" rx="6" fill="#34A853" opacity="0.3"/>
  <text x="395" y="322" text-anchor="middle" font-size="10" font-weight="700" fill="#81C995">Cloud Storage</text>
  <text x="395" y="343" text-anchor="middle" font-size="9" fill="#8892A4">settlements_daily.csv</text>
  <text x="395" y="359" text-anchor="middle" font-size="9" fill="#81C995">[PROJECT-BUCKET]</text>
  <text x="395" y="375" text-anchor="middle" font-size="9" fill="#81C995">/settlements/</text>
  <text x="395" y="391" text-anchor="middle" font-size="9" fill="#81C995">200 rows generated</text>
  <text x="395" y="407" text-anchor="middle" font-size="9" fill="#FFB74D">27.9 KB CSV input</text>

  <!-- Arrow -->
  <line x1="460" y1="360" x2="495" y2="360" stroke="#34A853" stroke-width="2"/>
  <polygon points="495,355 505,360 495,365" fill="#34A853"/>

  <!-- Dataflow Batch -->
  <rect x="505" y="303" width="145" height="115" rx="6" fill="#0D2015" stroke="#34A853" stroke-width="2"/>
  <rect x="505" y="303" width="145" height="28" rx="6" fill="#34A853" opacity="0.5"/>
  <text x="577" y="322" text-anchor="middle" font-size="10" font-weight="700" fill="#FFFFFF">Dataflow</text>
  <text x="577" y="338" text-anchor="middle" font-size="9" fill="#81C995">GCS_Text_to_BigQuery</text>
  <text x="577" y="354" text-anchor="middle" font-size="9" fill="#81C995">Template: Managed</text>
  <text x="577" y="370" text-anchor="middle" font-size="9" fill="#81C995">JS UDF: transformSettlement</text>
  <text x="577" y="386" text-anchor="middle" font-size="9" fill="#81C995">Runtime: 3 min 16 sec</text>
  <text x="577" y="402" text-anchor="middle" font-size="9" fill="#FFB74D">JOB_STATE_DONE</text>

  <!-- Arrow -->
  <line x1="650" y1="360" x2="685" y2="360" stroke="#34A853" stroke-width="2"/>
  <polygon points="685,355 695,360 685,365" fill="#34A853"/>

  <!-- BigQuery settlements -->
  <rect x="695" y="303" width="145" height="115" rx="6" fill="#0D2015" stroke="#34A853" stroke-width="1.5"/>
  <rect x="695" y="303" width="145" height="28" rx="6" fill="#34A853" opacity="0.3"/>
  <text x="767" y="322" text-anchor="middle" font-size="10" font-weight="700" fill="#81C995">BigQuery</text>
  <text x="767" y="338" text-anchor="middle" font-size="9" fill="#8892A4">transactions.settlements_daily</text>
  <text x="767" y="354" text-anchor="middle" font-size="9" fill="#81C995">SETTLED / REVERSED / HELD</text>
  <text x="767" y="370" text-anchor="middle" font-size="9" fill="#81C995">net = settled - fee</text>
  <text x="767" y="386" text-anchor="middle" font-size="9" fill="#81C995">Avg fee rate: ~2.2%</text>
  <text x="767" y="402" text-anchor="middle" font-size="9" fill="#FFB74D">200 rows | $396K net</text>

  <!-- UDF note -->
  <rect x="855" y="303" width="115" height="115" rx="6" fill="#0D1929" stroke="#455A64" stroke-width="1" stroke-dasharray="4,3"/>
  <text x="912" y="333" text-anchor="middle" font-size="9" fill="#607D8B">JS UDF + Schema</text>
  <text x="912" y="349" text-anchor="middle" font-size="9" fill="#607D8B">settlements_transform</text>
  <text x="912" y="365" text-anchor="middle" font-size="9" fill="#607D8B">.js</text>
  <text x="912" y="385" text-anchor="middle" font-size="9" fill="#455A64">Normalise status</text>
  <text x="912" y="401" text-anchor="middle" font-size="9" fill="#455A64">Skip header row</text>
  <line x1="855" y1="360" x2="840" y2="360" stroke="#455A64" stroke-width="1" stroke-dasharray="3,2"/>
  <line x1="840" y1="360" x2="840" y2="330" stroke="#455A64" stroke-width="1" stroke-dasharray="3,2"/>
  <line x1="840" y1="330" x2="650" y2="330" stroke="#455A64" stroke-width="1" stroke-dasharray="3,2"/>

  <!-- ═══════════════════════════════════════════════ -->
  <!-- BUILD 3: CUSTOM BEAM LANE -->
  <!-- ═══════════════════════════════════════════════ -->
  <rect x="20" y="461" width="1060" height="165" rx="8" fill="#0D1929" stroke="#7B2FBE" stroke-width="1" opacity="0.8"/>
  <rect x="20" y="461" width="120" height="165" rx="8" fill="#7B2FBE" opacity="0.15"/>
  <text x="80" y="529" text-anchor="middle" font-size="11" font-weight="700" fill="#AB47BC" letter-spacing="1">BUILD 3</text>
  <text x="80" y="546" text-anchor="middle" font-size="10" fill="#8892A4">CUSTOM BEAM</text>
  <text x="80" y="562" text-anchor="middle" font-size="9" fill="#8892A4">Python Beam SDK</text>
  <text x="80" y="578" text-anchor="middle" font-size="9" fill="#8892A4">5-Min Windows</text>

  <!-- Pub/Sub (reused) -->
  <rect x="155" y="486" width="130" height="115" rx="6" fill="#1A0D29" stroke="#AB47BC" stroke-width="1.5"/>
  <rect x="155" y="486" width="130" height="28" rx="6" fill="#7B2FBE" opacity="0.3"/>
  <text x="220" y="505" text-anchor="middle" font-size="10" font-weight="700" fill="#CE93D8">Cloud Pub/Sub</text>
  <text x="220" y="526" text-anchor="middle" font-size="9" fill="#8892A4">Same topic as Build 1</text>
  <text x="220" y="542" text-anchor="middle" font-size="9" fill="#CE93D8">transactions-stream</text>
  <text x="220" y="558" text-anchor="middle" font-size="9" fill="#CE93D8">Live event source</text>
  <text x="220" y="574" text-anchor="middle" font-size="9" fill="#CE93D8">ReadFromPubSub()</text>
  <text x="220" y="590" text-anchor="middle" font-size="9" fill="#FFB74D">Shared with Build 1</text>

  <!-- Arrow -->
  <line x1="285" y1="543" x2="320" y2="543" stroke="#AB47BC" stroke-width="2"/>
  <polygon points="320,538 330,543 320,548" fill="#AB47BC"/>

  <!-- Custom Beam Transforms -->
  <rect x="330" y="486" width="145" height="115" rx="6" fill="#1A0D29" stroke="#AB47BC" stroke-width="1.5"/>
  <rect x="330" y="486" width="145" height="28" rx="6" fill="#7B2FBE" opacity="0.3"/>
  <text x="402" y="505" text-anchor="middle" font-size="10" font-weight="700" fill="#CE93D8">Beam Transforms</text>
  <text x="402" y="523" text-anchor="middle" font-size="8" fill="#CE93D8">ParseTransaction (DoFn)</text>
  <text x="402" y="538" text-anchor="middle" font-size="8" fill="#CE93D8">Add Timestamps</text>
  <text x="402" y="553" text-anchor="middle" font-size="8" fill="#CE93D8">FixedWindows(5 * 60)</text>
  <text x="402" y="568" text-anchor="middle" font-size="8" fill="#CE93D8">CombineGlobally(ToList)</text>
  <text x="402" y="583" text-anchor="middle" font-size="8" fill="#CE93D8">AggregateWindow (DoFn)</text>
  <text x="402" y="598" text-anchor="middle" font-size="9" fill="#FFB74D">7 pipeline stages</text>

  <!-- Arrow -->
  <line x1="475" y1="543" x2="505" y2="543" stroke="#AB47BC" stroke-width="2"/>
  <polygon points="505,538 515,543 505,548" fill="#AB47BC"/>

  <!-- Dataflow Custom -->
  <rect x="515" y="486" width="135" height="115" rx="6" fill="#1A0D29" stroke="#AB47BC" stroke-width="2"/>
  <rect x="515" y="486" width="135" height="28" rx="6" fill="#7B2FBE" opacity="0.5"/>
  <text x="582" y="505" text-anchor="middle" font-size="10" font-weight="700" fill="#FFFFFF">Dataflow</text>
  <text x="582" y="521" text-anchor="middle" font-size="9" fill="#CE93D8">fraud-windows-beam</text>
  <text x="582" y="537" text-anchor="middle" font-size="9" fill="#CE93D8">Runner: DataflowRunner</text>
  <text x="582" y="553" text-anchor="middle" font-size="9" fill="#CE93D8">SDK: Beam Python 3.12</text>
  <text x="582" y="569" text-anchor="middle" font-size="9" fill="#CE93D8">Streaming Engine: ON</text>
  <text x="582" y="585" text-anchor="middle" font-size="9" fill="#CE93D8">Exactly Once mode</text>
  <text x="582" y="598" text-anchor="middle" font-size="9" fill="#FFB74D">Drained cleanly</text>

  <!-- Arrow -->
  <line x1="650" y1="543" x2="685" y2="543" stroke="#AB47BC" stroke-width="2"/>
  <polygon points="685,538 695,543 685,548" fill="#AB47BC"/>

  <!-- BigQuery fraud_windows -->
  <rect x="695" y="486" width="145" height="115" rx="6" fill="#1A0D29" stroke="#AB47BC" stroke-width="1.5"/>
  <rect x="695" y="486" width="145" height="28" rx="6" fill="#7B2FBE" opacity="0.3"/>
  <text x="767" y="505" text-anchor="middle" font-size="10" font-weight="700" fill="#CE93D8">BigQuery</text>
  <text x="767" y="521" text-anchor="middle" font-size="9" fill="#8892A4">transactions.fraud_windows</text>
  <text x="767" y="537" text-anchor="middle" font-size="9" fill="#CE93D8">5-min tumbling windows</text>
  <text x="767" y="553" text-anchor="middle" font-size="9" fill="#CE93D8">fraud_rate_pct per window</text>
  <text x="767" y="569" text-anchor="middle" font-size="9" fill="#CE93D8">risk_level: HIGH_RISK</text>
  <text x="767" y="585" text-anchor="middle" font-size="9" fill="#CE93D8">top_merchant per window</text>
  <text x="767" y="598" text-anchor="middle" font-size="9" fill="#FFB74D">2 windows | 36-43% fraud</text>

  <!-- ═══════════════════════════════════════════════ -->
  <!-- RECONCILIATION JOIN -->
  <!-- ═══════════════════════════════════════════════ -->
  <rect x="20" y="644" width="1060" height="60" rx="8" fill="#1A1400" stroke="#F9A825" stroke-width="1.5"/>
  <text x="550" y="665" text-anchor="middle" font-size="11" font-weight="700" fill="#FFD54F" letter-spacing="1">THREE-WAY RECONCILIATION JOIN</text>
  <text x="550" y="683" text-anchor="middle" font-size="10" fill="#8892A4">fraud_windows LEFT JOIN settlements_daily ON DATE(window_start) = settlement_date LEFT JOIN transactions_raw ON timestamp BETWEEN window_start AND window_end</text>

  <!-- Vertical join arrows -->
  <line x1="767" y1="235" x2="767" y2="278" stroke="#1A73E8" stroke-width="1.5" stroke-dasharray="4,3" opacity="0.6"/>
  <line x1="767" y1="418" x2="767" y2="461" stroke="#34A853" stroke-width="1.5" stroke-dasharray="4,3" opacity="0.6"/>
  <line x1="767" y1="601" x2="767" y2="644" stroke="#AB47BC" stroke-width="1.5" stroke-dasharray="4,3" opacity="0.6"/>
  <polygon points="762,278 767,285 772,278" fill="#1A73E8" opacity="0.6"/>
  <polygon points="762,461 767,468 772,461" fill="#34A853" opacity="0.6"/>
  <polygon points="762,644 767,651 772,644" fill="#AB47BC" opacity="0.6"/>

  <!-- Join label on right -->
  <text x="780" y="257" font-size="8" fill="#1A73E8" opacity="0.7">JOIN KEY:</text>
  <text x="780" y="268" font-size="8" fill="#1A73E8" opacity="0.7">transaction_id</text>
  <text x="780" y="440" font-size="8" fill="#34A853" opacity="0.7">JOIN KEY:</text>
  <text x="780" y="451" font-size="8" fill="#34A853" opacity="0.7">settlement_date</text>
  <text x="780" y="623" font-size="8" fill="#AB47BC" opacity="0.7">JOIN KEY:</text>
  <text x="780" y="634" font-size="8" fill="#AB47BC" opacity="0.7">timestamp range</text>

  <!-- Verification badge -->
  <rect x="860" y="644" width="220" height="60" rx="6" fill="#0D2015" stroke="#34A853" stroke-width="1.5"/>
  <text x="970" y="664" text-anchor="middle" font-size="10" font-weight="700" fill="#81C995">VERIFICATION: 18 / 18 PASSED</text>
  <text x="970" y="680" text-anchor="middle" font-size="9" fill="#8892A4">All checks passed across all 3 builds</text>
  <text x="970" y="695" text-anchor="middle" font-size="9" fill="#607D8B">GCP Sandbox   |   us-east1   |   e2-medium x1</text>

</svg>
